<svg id="SvgjsSvg1021" xmlns="http://www.w3.org/2000/svg" version="1.1" xmlns:xlink="http://www.w3.org/1999/xlink" xmlns:svgjs="http://svgjs.com/svgjs" width="34" height="40"><defs id="SvgjsDefs1022"><clipPath id="SvgjsClipPath1025"><path id="SvgjsPath1024" d="M623.005 546.993L639.999 558.3620000000001L656.995 546.993L656.995 556.6370000000001L639.999 568.0070000000001L623.005 556.6370000000001Z " fill="#ffffff"></path></clipPath><clipPath id="SvgjsClipPath1028"><path id="SvgjsPath1027" d="M623.005 529.993L639.999 541.3620000000001L656.995 529.993L656.995 539.6370000000001L639.999 551.0070000000001L623.005 539.6370000000001Z " fill="#ffffff"></path></clipPath></defs><path id="SvgjsPath1023" d="M623.005 546.993L639.999 558.3620000000001L656.995 546.993L656.995 556.6370000000001L639.999 568.0070000000001L623.005 556.6370000000001Z " fill-opacity="0" fill="#ffffff" stroke-dasharray="0" stroke-linejoin="miter" stroke-linecap="butt" stroke-opacity="1" stroke="#17ffcb" stroke-miterlimit="50" stroke-width="2" clip-path="url(&quot;#SvgjsClipPath1025&quot;)" transform="matrix(1,0,0,1,-623,-529)"></path><path id="SvgjsPath1026" d="M623.005 529.993L639.999 541.3620000000001L656.995 529.993L656.995 539.6370000000001L639.999 551.0070000000001L623.005 539.6370000000001Z " fill-opacity="0" fill="#ffffff" stroke-dasharray="0" stroke-linejoin="miter" stroke-linecap="butt" stroke-opacity="1" stroke="#17ffcb" stroke-miterlimit="50" stroke-width="2" clip-path="url(&quot;#SvgjsClipPath1028&quot;)" transform="matrix(1,0,0,1,-623,-529)"></path></svg>