<svg id="SvgjsSvg1029" xmlns="http://www.w3.org/2000/svg" version="1.1" xmlns:xlink="http://www.w3.org/1999/xlink" xmlns:svgjs="http://svgjs.com/svgjs" width="30" height="18"><defs id="SvgjsDefs1030"></defs><path id="SvgjsPath1031" d="M1159.5 54.9999L1186.5 54.9999C1187.33 54.9999 1188 55.671499999999995 1188 56.4999C1188 57.328399999999995 1187.33 57.9999 1186.5 57.9999L1159.5 57.9999C1158.67 57.9999 1158 57.328399999999995 1158 56.4999C1158 55.671499999999995 1158.67 54.9999 1159.5 54.9999Z " fill="#17ffcb" transform="matrix(1,0,0,1,-1158,-54)"></path><path id="SvgjsPath1032" d="M1159.5 61.9999L1186.5 61.9999C1187.33 61.9999 1188 62.671499999999995 1188 63.4999C1188 64.3284 1187.33 65 1186.5 65L1159.5 65C1158.67 65 1158 64.3284 1158 63.4999C1158 62.671499999999995 1158.67 61.9999 1159.5 61.9999Z " fill="#17ffcb" transform="matrix(1,0,0,1,-1158,-54)"></path><path id="SvgjsPath1033" d="M1159.5 69L1186.5 69C1187.33 69 1188 69.6715 1188 70.5C1188 71.3283 1187.33 72 1186.5 72L1159.5 72C1158.67 72 1158 71.3283 1158 70.5C1158 69.6715 1158.67 69 1159.5 69Z " fill="#17ffcb" transform="matrix(1,0,0,1,-1158,-54)"></path></svg>