<svg id="SvgjsSvg1034" xmlns="http://www.w3.org/2000/svg" version="1.1" xmlns:xlink="http://www.w3.org/1999/xlink" xmlns:svgjs="http://svgjs.com/svgjs" width="41" height="41"><defs id="SvgjsDefs1035"><clipPath id="SvgjsClipPath1038"><path id="SvgjsPath1037" d="M640.5 1573C651.822 1573 661 1582.18 661 1593.5C661 1604.82 651.822 1614 640.5 1614C629.178 1614 620 1604.82 620 1593.5C620 1582.18 629.178 1573 640.5 1573Z " fill="#ffffff"></path></clipPath><clipPath id="SvgjsClipPath1041"><path id="SvgjsPath1040" d="M640.12 1584L640.88 1584L640.88 1603L640.12 1603Z " fill="#ffffff"></path></clipPath><clipPath id="SvgjsClipPath1044"><path id="SvgjsPath1043" d="M650 1593.12L650 1593.8799999999999L631 1593.8799999999999L631 1593.12Z " fill="#ffffff"></path></clipPath></defs><path id="SvgjsPath1036" d="M640.5 1573C651.822 1573 661 1582.18 661 1593.5C661 1604.82 651.822 1614 640.5 1614C629.178 1614 620 1604.82 620 1593.5C620 1582.18 629.178 1573 640.5 1573Z " fill-opacity="0" fill="#ffffff" stroke-dasharray="0" stroke-linejoin="miter" stroke-linecap="butt" stroke-opacity="1" stroke="#17ffcb" stroke-miterlimit="50" stroke-width="2" clip-path="url(&quot;#SvgjsClipPath1038&quot;)" transform="matrix(1,0,0,1,-620,-1573)"></path><path id="SvgjsPath1039" d="M640.12 1584L640.88 1584L640.88 1603L640.12 1603Z " fill-opacity="0" fill="#ffffff" stroke-dasharray="0" stroke-linejoin="miter" stroke-linecap="butt" stroke-opacity="1" stroke="#17ffcb" stroke-miterlimit="50" stroke-width="2" clip-path="url(&quot;#SvgjsClipPath1041&quot;)" transform="matrix(1,0,0,1,-620,-1573)"></path><path id="SvgjsPath1042" d="M650 1593.12L650 1593.8799999999999L631 1593.8799999999999L631 1593.12Z " fill-opacity="0" fill="#ffffff" stroke-dasharray="0" stroke-linejoin="miter" stroke-linecap="butt" stroke-opacity="1" stroke="#17ffcb" stroke-miterlimit="50" stroke-width="2" clip-path="url(&quot;#SvgjsClipPath1044&quot;)" transform="matrix(1,0,0,1,-620,-1573)"></path></svg>